<?xml version="1.0" encoding="UTF-8" standalone="no"?><!DOCTYPE svg PUBLIC "-//W3C//DTD SVG 1.1//EN" "http://www.w3.org/Graphics/SVG/1.1/DTD/svg11.dtd"><svg width="100%" height="100%" viewBox="0 0 241 140" version="1.1" xmlns="http://www.w3.org/2000/svg" xmlns:xlink="http://www.w3.org/1999/xlink" xml:space="preserve" xmlns:serif="http://www.serif.com/" style="fill-rule:evenodd;clip-rule:evenodd;stroke-linecap:round;stroke-linejoin:round;stroke-miterlimit:1.5;"><path id="new-river-path" serif:id="new river path" d="M0.549,2.633c6.595,16.329 29.872,34.975 35.736,37.652c15.537,7.095 32.639,-0.293 36.727,14.188c2.055,7.275 -4.938,28.101 -2.942,38.814c1.593,8.552 20.564,20.738 32.774,6.971c7.199,-8.116 2.191,-22.701 4.221,-26.724c5.564,-11.022 18.804,-13.604 27.883,-1.089c7.138,9.839 -7.416,39.47 -5.25,48.078c2.206,8.767 12.485,13.017 25.38,13.462c8.704,0.301 17.435,-10.562 24.469,-20.227c3.948,-5.426 6.398,-8.767 5.976,-13.929c-1.142,-13.972 -16.67,-13.451 -13.474,-28.006c4.688,-21.348 65.428,-15.695 70.387,-14.128" style="fill:none;stroke:#121cb1;stroke-width:11px;"/></svg>