<?xml version="1.0" encoding="UTF-8" standalone="no"?><!DOCTYPE svg PUBLIC "-//W3C//DTD SVG 1.1//EN" "http://www.w3.org/Graphics/SVG/1.1/DTD/svg11.dtd"><svg width="100%" height="100%" viewBox="0 0 271 104" version="1.1" xmlns="http://www.w3.org/2000/svg" xmlns:xlink="http://www.w3.org/1999/xlink" xml:space="preserve" xmlns:serif="http://www.serif.com/" style="fill-rule:evenodd;clip-rule:evenodd;stroke-linecap:round;stroke-linejoin:round;stroke-miterlimit:1.5;"><path id="new-river-path" serif:id="new river path" d="M-0.547,58.131c19.245,4.05 46.523,-14.358 73.244,-4.162c7.176,2.738 19.491,15.837 23.518,17.434c9.874,3.918 18.724,-3.169 24.351,-7.027c12.145,-8.329 11.708,-31.551 14.264,-38.244c1.621,-3.688 4.789,-10.706 8.328,-13.502c9.19,-7.263 16.794,-1.797 19.009,2.954c1.416,3.036 2.139,6.014 1.351,11.503c-1.191,8.306 -5.515,15.958 -8.229,23.55c-2.713,7.593 -4.876,11.513 -2.751,16.302c4.059,9.146 21.609,10.852 32.702,-9.466c5.704,-10.447 -0.74,-24 1.432,-30.745c3.868,-12.012 21.005,-25.584 39.872,-19.732c12.795,3.968 7.706,21.634 0.223,30.347c-17.385,20.241 -20.652,28.163 -20.65,37.05c0.009,41.114 56.252,20.541 69.072,0" style="fill:none;stroke:#121cb1;stroke-width:11px;"/></svg>