<?xml version="1.0" encoding="UTF-8" standalone="no"?><!DOCTYPE svg PUBLIC "-//W3C//DTD SVG 1.1//EN" "http://www.w3.org/Graphics/SVG/1.1/DTD/svg11.dtd"><svg width="100%" height="100%" viewBox="0 0 249 91" version="1.1" xmlns="http://www.w3.org/2000/svg" xmlns:xlink="http://www.w3.org/1999/xlink" xml:space="preserve" xmlns:serif="http://www.serif.com/" style="fill-rule:evenodd;clip-rule:evenodd;stroke-linecap:round;stroke-linejoin:round;stroke-miterlimit:1.5;"><path id="new-river-path" serif:id="new river path" d="M-3.882,84.674c3.09,-4.939 20.668,-17.712 24.466,-19.69c13.327,-6.938 11.504,-14.269 13.579,-20.601c1.999,-6.105 8.424,-15.955 23.446,-10.235c5.314,2.023 12.075,11.6 8.455,20.263c-4.343,10.392 5.062,29.073 19.009,26.505c27.921,-5.141 13.2,-40.909 27.823,-56.741c3.152,-3.413 13.045,-10.039 23.267,-1.69c11.527,12.698 1.553,17.801 6.097,27.96c4.927,11.019 23.562,19.168 29.104,-2.226c2.835,-10.944 -2.195,-12.025 -2.154,-21.6c0.042,-9.574 8.301,-16.831 19.487,-19.549c12.493,-3.036 55.241,6.697 62.379,11.568" style="fill:none;stroke:#121cb1;stroke-width:11px;"/></svg>