<?xml version="1.0" encoding="UTF-8" standalone="no"?><!DOCTYPE svg PUBLIC "-//W3C//DTD SVG 1.1//EN" "http://www.w3.org/Graphics/SVG/1.1/DTD/svg11.dtd"><svg width="100%" height="100%" viewBox="0 0 639 236" version="1.1" xmlns="http://www.w3.org/2000/svg" xmlns:xlink="http://www.w3.org/1999/xlink" xml:space="preserve" xmlns:serif="http://www.serif.com/" style="fill-rule:evenodd;clip-rule:evenodd;stroke-linecap:round;stroke-linejoin:round;stroke-miterlimit:1.5;"><path id="new-river-path" serif:id="new river path" d="M-4.759,52.522c0,0 61.508,-58.427 101.867,-36.382c12.059,6.588 9.499,26.118 9.688,29.662c0.395,7.43 5.563,8.554 6.96,8.88c3.565,0.832 7.426,-0.407 11.28,-4.8c3.854,-4.393 6.946,-10.849 10.32,-15.36c3.079,-4.117 7.043,-7.473 12.48,-8.64c5.492,-1.178 8.547,0.69 10.8,2.88c2.801,2.723 3.297,9.009 3.6,12c0.303,2.992 0.534,6.056 0,12.48c-0.535,6.424 -1.952,9.77 -5.28,13.44c-4.865,5.787 -10.997,9.401 -20.88,14.4c-9.346,4.727 -13.089,9.894 -15.6,13.68c-2.837,4.276 -4.194,10.452 -3.36,13.44c0.93,4.552 3.683,6.762 5.76,7.92c5.721,3.192 11.05,1.618 12.96,0.96c3.811,-1.169 6.254,-1.922 12,-5.04c2.246,-1.219 8.166,-5.177 12.48,-6.48c3.198,-0.966 7.814,-1.395 10.32,-0.48c4.234,1.766 5.818,4.736 6.48,6.72c0.664,1.991 1.488,5.813 0.96,9.84c-0.529,4.028 -2.36,8.014 -4.56,9.996c-5.546,5.034 -17.193,7.728 -25.68,11.124c-8.154,3.534 -11.546,6.082 -13.68,7.92c-2.134,1.838 -5.381,5.686 -6.24,9.36c-0.534,2.283 -0.938,5.817 0.48,9.6c1.98,3.904 6.141,7.823 8.88,9.6c7.305,4.741 18.532,8.491 30.48,8.88c6.706,0.219 10.317,-0.43 14.88,-2.88c17.273,-9.275 23.269,-22.216 29.28,-34.8c3.851,-8.062 5.42,-19.161 5.28,-23.76c-0.202,-6.642 -0.306,-9.023 0.24,-15.12c1.167,-9.796 7.686,-12.932 15.36,-12.96c10.386,0.214 15.311,7.018 16.8,12c0.978,3.275 3.047,15.811 6.72,21.6c2.252,3.574 5.344,8.844 10.56,10.56c2.987,0.983 5.865,0.808 9.36,-1.44c8.954,-6.604 10.25,-16.225 10.56,-23.04c0.172,-3.793 -0.327,-7.837 -2.4,-11.76c-3.982,-7.997 -13.874,-17.696 -17.28,-24c-1.738,-3.634 -4.989,-10.614 -4.8,-15.12c0.491,-11.703 9.594,-13.9 14.64,-12.48c3.225,0.908 5.953,2.302 9.6,6.48c5.149,5.899 8.087,13.495 11.694,20.181c0.258,0.478 0.513,0.955 0.786,1.419c6.835,11.641 15.82,12.29 21.36,12.24c7.32,-0.065 22.322,-9.297 14.16,-30.96c-1.455,-5.412 -13.228,-21.592 -16.08,-28.08c-2.852,-6.488 -5.446,-13.062 -5.28,-17.28c0.09,-2.307 0.081,-9.391 9.84,-12.72c3.283,-1.12 9.668,-0.716 15.36,2.16c6.76,3.858 8.377,9.519 10.08,13.44c2.773,7.007 5.844,23.54 9.12,37.68c3.479,15.017 9.35,28.421 9.12,43.116c-0.163,10.381 -3.59,14.267 -5.52,16.404c-5.687,6.499 -15.091,11.587 -18.48,12.96c-14.802,5.996 -22.672,10.058 -28.8,17.52c-4.273,5.242 -4.82,11.666 1.68,16.32c4.128,2.956 13.844,4.496 32.16,2.64c7.862,-0.797 10.74,2.53 12.96,5.76c1.823,2.87 3.882,8.923 1.521,15.011c-2.935,7.568 -11.224,12.087 -20.001,13.069c-3.944,0.441 -14.234,0.44 -19.68,0.72c-8.751,0.45 -26.363,2.981 -30.96,7.44c-5.101,4.947 -6.912,11.96 -0.72,16.56c5.212,3.872 24.581,3.169 26.88,3.12c18.838,-0.4 44.535,-4.722 56.88,-8.16c12.167,-3.388 16.769,-10.026 18,-20.64c0.626,-5.401 0.175,-12.712 -0.24,-16.08c-0.415,-3.368 -2.34,-18.344 -1.44,-22.08c1.858,-13.67 15.603,-13.293 20.4,-12c6.316,1.749 10.158,6.638 12,17.04c1.077,6.086 2.227,12.161 4.08,16.08c5.046,10.674 12.66,14.938 21.12,10.56c3.357,-1.737 6.249,-5.313 7.92,-9.84c1.867,-5.058 1.692,-7.903 1.2,-12.96c-0.493,-5.057 -2.151,-8.632 -4.32,-12c-9.415,-14.615 -26.08,-22.912 -27.6,-46.08c-0.41,-7.18 2.634,-11.635 6,-14.64c2.477,-2.212 8.716,-5.131 15.6,-4.8c12.538,0.553 19.973,10.722 30.96,20.88c4.959,3.952 11.282,6.582 16.32,6.24c14.641,-0.992 12.245,-17.457 8.4,-23.52c-3.256,-5.134 -6.46,-8.369 -13.2,-13.44c-3.874,-2.913 -10.538,-6.193 -17.76,-12.48c-7.222,-6.286 -9.022,-11.762 -10.32,-15.6c-3.398,-10.04 1.404,-16.853 9.12,-19.68c2.274,-0.833 6.946,-2.477 12,-0.48c5.683,2.246 7.688,7.302 9.12,10.08c3.536,9.247 6.87,15.915 11.52,19.92c10.237,8.82 18.361,4.334 20.4,-5.76c1.914,-9.478 -3.505,-23.565 -2.88,-30.96c0.728,-8.613 6.767,-14.046 17.04,-12.48c37.805,5.764 104.175,-6.96 104.175,-6.96" style="fill:none;stroke:#121cb1;stroke-width:11px;"/></svg>