<?xml version="1.0" encoding="UTF-8"?>
<svg width="50px" height="60px" viewBox="0 0 50 60" version="1.1" xmlns="http://www.w3.org/2000/svg" xmlns:xlink="http://www.w3.org/1999/xlink">
    <!-- Generator: Sketch 54.1 (76490) - https://sketchapp.com -->
    <title>ruby marker</title>
    <desc>Created with Sketch.</desc>
    <g id="Page-1" stroke="none" stroke-width="1" fill="none" fill-rule="evenodd">
        <g id="Artboard" transform="translate(-66.000000, -216.000000)">
            <g id="ruby-marker" transform="translate(66.000000, 216.000000)">
                <g id="Group" fill="#1021AA" fill-rule="nonzero">
                    <path d="M25,0 C11.195,0 0,10.9875 0,24.5375 C0,38.3 10.9375,47.7075 25,60 C39.0625,47.7075 50,38.3 50,24.5375 C50,10.9875 38.805,0 25,0 Z M25,45 C13.9525,45 5,36.045 5,25 C5,13.955 13.9525,5 25,5 C36.0475,5 45,13.955 45,25 C45,36.045 36.0475,45 25,45 Z" id="Shape"></path>
                </g>
                <g id="ruby" transform="translate(5.000000, 5.000000)">
                    <circle id="Oval" fill="#FFC3B7" cx="20" cy="20" r="20"></circle>
                    <rect id="Rectangle-Copy-4" fill="#1021AA" x="23" y="10" width="9" height="24" rx="4.5"></rect>
                    <rect id="Rectangle-Copy-3" fill="#1021AA" x="8" y="10" width="9" height="24" rx="4.5"></rect>
                    <circle id="Oval" fill="#FFFCE8" cx="20" cy="18" r="10"></circle>
                    <path d="M20,8 C25.514,8 30,12.486 30,18 C30,23.514 25.514,28 20,28 C14.486,28 10,23.514 10,18 C10,12.486 14.486,8 20,8 Z M20,6 C13.373,6 8,11.373 8,18 C8,24.627 13.373,30 20,30 C26.627,30 32,24.627 32,18 C32,11.373 26.627,6 20,6 Z M25.508,19.941 C23.995,21.136 22.334,21.872 20.001,21.872 C17.666,21.872 16.005,21.136 14.492,19.941 L14,20.434 C15.127,22.154 17.2,24 20.001,24 C22.801,24 24.873,22.154 26,20.434 L25.508,19.941 Z M26,16.002 L25.245,16.508 C25.245,16.508 24.742,15.56 23.499,15.56 C22.292,15.56 21.754,16.508 21.754,16.508 L21,16.002 C21.281,15.254 22.205,14 23.499,14 C24.794,14 25.717,15.254 26,16.002 L26,16.002 Z M19,16.002 L18.245,16.508 C18.245,16.508 17.742,15.56 16.499,15.56 C15.292,15.56 14.754,16.508 14.754,16.508 L14,16.002 C14.281,15.254 15.205,14 16.499,14 C17.794,14 18.717,15.254 19,16.002 L19,16.002 Z" id="Shape" fill="#1021AA" fill-rule="nonzero"></path>
                    <rect id="Rectangle-Copy-2" fill="#1021AA" x="11" y="6" width="18" height="7" rx="3.5"></rect>
                </g>
            </g>
        </g>
    </g>
</svg>