<svg version="1" xmlns="http://www.w3.org/2000/svg" width="933.333" height="933.333" viewBox="0 0 700.000000 700.000000"><path d="M330.8 1.5c-.2.2-4.8.6-10.3 1-5.5.4-10.2.8-10.5 1-.3.1-3.6.6-7.3 1-6.6.6-8.2.9-13.7 2-1.4.3-4.3.8-6.5 1.1-6.9 1-33.5 8-45 11.9C195.8 33.4 153 58 120 86.9c-9.9 8.7-29.1 28-36.3 36.6-3.3 3.9-6.6 7.9-7.6 9-.9 1.1-2.7 3.6-4.1 5.5-1.3 1.9-2.7 3.7-3 4-.4.3-4 5.4-8.2 11.5-29 42.3-47.5 88.8-56.3 141.4-3 17.5-4 31.9-4 55.1 0 28.3 1.2 42.9 5 61.5.8 3.8 1.6 8.1 1.8 9.5 1.8 9.7 10 39.2 12.6 45.5.5 1.1 1.4 3.6 2.1 5.5 1.5 4.4 1.8 5 7.9 19.2C47.3 531.1 75 570.7 107.5 602c44.1 42.3 98.5 72.4 157.6 86.9 10.6 2.6 23.1 5 39.9 7.6 13.3 2 56.2 2.8 74 1.3 9.7-.8 24.8-2.7 27-3.3.8-.3 3.3-.7 5.5-1 2.2-.4 9-1.8 15-3.1 93.1-21 174.5-80.6 223.4-163.6 22.5-38.1 39.4-86.7 44.6-127.8.3-2.5.8-6.1 1-8 2.1-16.5 2.7-51.8 1.3-69-1.9-23.1-6.2-46.5-12.1-67-2.8-9.5-7.4-23.4-8.7-26.5-.5-1.1-2.3-5.6-4-10-4.3-10.9-15.8-34.6-20.8-42.9-2.3-3.7-4.2-7-4.2-7.2 0-1.7-23.7-34.4-31.1-42.9-17.4-19.9-33.4-35.3-51.9-50.1-6.9-5.5-34.3-24.4-35.3-24.4-.3 0-3.4-1.7-6.8-3.8-9.4-5.7-34.1-17.5-46-22C442 12.3 414.1 5.8 377.5 2.4c-6.8-.6-46.2-1.4-46.7-.9z"/></svg>