<svg version="1" xmlns="http://www.w3.org/2000/svg" width="933.333" height="933.333" viewBox="0 0 700.000000 700.000000"><path d="M636.9 49c-15.6 2.5-31.2 8-44.5 15.8-16.2 9.4-44.2 32.8-63.1 52.6-11.1 11.6-17.3 20.8-38.8 58.1-9.2 15.9-19.7 33.7-23.3 39.5-28.8 46.2-56.3 74.6-83.4 86.2-8.7 3.7-40.5 11-60.8 13.9-18.5 2.7-39.3 2.3-51-1.1-10.7-3-20.5-8-28-14.3-8-6.6-11.6-12.6-37.7-62.2-41.9-79.6-54.1-96.5-89.8-124.2C84.6 88.5 41 65.7 2.8 54L0 53.1v60.7l10.2 4.2c25.6 10.5 56.3 28.4 75.3 44 24.7 20.1 34.1 34 70 102.5 28.3 54.2 33.8 62.9 46.3 74.6 18.5 17.3 42.2 28.7 69.2 33.5 15.2 2.7 45.5 2.4 64-.5 18.5-3 52-10.5 62.5-14.1 31.7-10.7 62.7-35.3 91.6-72.7 4.3-5.6 7.9-10.5 7.9-10.9 0-.3 2.8-4.7 6.3-9.8 9.3-13.4 17.4-26.7 36.2-59.1 25.8-44.5 25-43.3 44-60.8 31.9-29.4 45.9-37.5 67.7-39.3 18.8-1.6 33.6 6 43.2 22l3.6 6V56.2l-4-1.6c-11.6-4.6-18.3-5.8-35-6.1-9.1-.2-19 0-22.1.5zM694 185.7c-3.8 9.7-15.4 29.7-24.2 41.5-9 12-21.7 26.4-45.8 51.8-23.9 25.2-61.5 67.6-71 80.1-19.8 25.9-27.4 49.9-24 75.9 5.7 44.3 39 79.4 86.9 91.5 23.4 6 53.2 5.5 76.9-1.2l5.2-1.4v-30.5c0-21.9-.3-30.4-1.1-30.4-.6 0-4.3 1.1-8 2.5-17.3 6.2-40.9 8.3-56.2 4.9-18.5-4.1-35.4-16.1-41.9-30-3-6.3-3.3-7.8-3.3-16.4 0-8.5.3-10.1 2.9-15.1 1.5-3.1 5.4-9.1 8.5-13.2 8.9-11.9 42.8-50.2 64.6-73.1 11-11.5 23.3-24.6 27.2-29l7.3-8.1v-54.3c0-29.8-.1-54.2-.3-54.2-.2 0-1.9 3.9-3.7 8.7z"/></svg>