<?xml version="1.0" standalone="no"?>
<!DOCTYPE svg PUBLIC "-//W3C//DTD SVG 20010904//EN"
 "http://www.w3.org/TR/2001/REC-SVG-20010904/DTD/svg10.dtd">
<svg version="1.0" xmlns="http://www.w3.org/2000/svg"
 width="260.000000pt" height="260.000000pt" viewBox="0 0 260.000000 260.000000"
 preserveAspectRatio="xMidYMid meet">
<metadata>
Created by potrace 1.11, written by Peter Selinger 2001-2013
</metadata>
<g transform="translate(0.000000,260.000000) scale(0.100000,-0.100000)"
fill="#000000" stroke="none">
<path d="M1080 2584 c-170 -31 -365 -109 -512 -208 -55 -37 -73 -52 -154 -126
-207 -191 -353 -461 -398 -735 -18 -113 -18 -332 1 -433 102 -553 518 -969
1068 -1066 101 -17 325 -17 430 0 546 93 971 519 1069 1074 20 109 15 363 -8
470 -111 508 -491 894 -996 1011 -115 27 -380 34 -500 13z"/>
</g>
</svg>
